<svg id="SvgjsSvg1195" width="851" height="963" xmlns="http://www.w3.org/2000/svg" version="1.1" xmlns:xlink="http://www.w3.org/1999/xlink" xmlns:svgjs="http://svgjs.com/svgjs"><defs id="SvgjsDefs1196"><marker id="SvgjsMarker1211" markerWidth="14" markerHeight="10" refX="10" refY="5" viewBox="0 0 14 10" orient="auto" markerUnits="userSpaceOnUse" stroke-dasharray="0,0"><path id="SvgjsPath1212" d="M0,0 L14,5 L0,10 L0,0" fill="#323232" stroke="#323232" stroke-width="1"></path></marker><marker id="SvgjsMarker1228" markerWidth="14" markerHeight="10" refX="10" refY="5" viewBox="0 0 14 10" orient="auto" markerUnits="userSpaceOnUse" stroke-dasharray="0,0"><path id="SvgjsPath1229" d="M0,0 L14,5 L0,10 L0,0" fill="#323232" stroke="#323232" stroke-width="1"></path></marker><marker id="SvgjsMarker1232" markerWidth="14" markerHeight="10" refX="10" refY="5" viewBox="0 0 14 10" orient="auto" markerUnits="userSpaceOnUse" stroke-dasharray="0,0"><path id="SvgjsPath1233" d="M0,0 L14,5 L0,10 L0,0" fill="#323232" stroke="#323232" stroke-width="1"></path></marker><marker id="SvgjsMarker1242" markerWidth="14" markerHeight="10" refX="10" refY="5" viewBox="0 0 14 10" orient="auto" markerUnits="userSpaceOnUse" stroke-dasharray="0,0"><path id="SvgjsPath1243" d="M0,0 L14,5 L0,10 L0,0" fill="#323232" stroke="#323232" stroke-width="1"></path></marker><marker id="SvgjsMarker1256" markerWidth="14" markerHeight="10" refX="10" refY="5" viewBox="0 0 14 10" orient="auto" markerUnits="userSpaceOnUse" stroke-dasharray="0,0"><path id="SvgjsPath1257" d="M0,0 L14,5 L0,10 L0,0" fill="#323232" stroke="#323232" stroke-width="1"></path></marker><marker id="SvgjsMarker1260" markerWidth="14" markerHeight="10" refX="10" refY="5" viewBox="0 0 14 10" orient="auto" markerUnits="userSpaceOnUse" stroke-dasharray="0,0"><path id="SvgjsPath1261" d="M0,0 L14,5 L0,10 L0,0" fill="#323232" stroke="#323232" stroke-width="1"></path></marker><marker id="SvgjsMarker1274" markerWidth="14" markerHeight="10" refX="10" refY="5" viewBox="0 0 14 10" orient="auto" markerUnits="userSpaceOnUse" stroke-dasharray="0,0"><path id="SvgjsPath1275" d="M0,0 L14,5 L0,10 L0,0" fill="#323232" stroke="#323232" stroke-width="1"></path></marker><marker id="SvgjsMarker1290" markerWidth="14" markerHeight="10" refX="10" refY="5" viewBox="0 0 14 10" orient="auto" markerUnits="userSpaceOnUse" stroke-dasharray="0,0"><path id="SvgjsPath1291" d="M0,0 L14,5 L0,10 L0,0" fill="#323232" stroke="#323232" stroke-width="1"></path></marker><marker id="SvgjsMarker1298" markerWidth="14" markerHeight="10" refX="10" refY="5" viewBox="0 0 14 10" orient="auto" markerUnits="userSpaceOnUse" stroke-dasharray="0,0"><path id="SvgjsPath1299" d="M0,0 L14,5 L0,10 L0,0" fill="#323232" stroke="#323232" stroke-width="1"></path></marker><marker id="SvgjsMarker1312" markerWidth="14" markerHeight="10" refX="10" refY="5" viewBox="0 0 14 10" orient="auto" markerUnits="userSpaceOnUse" stroke-dasharray="0,0"><path id="SvgjsPath1313" d="M0,0 L14,5 L0,10 L0,0" fill="#323232" stroke="#323232" stroke-width="1"></path></marker><marker id="SvgjsMarker1326" markerWidth="14" markerHeight="10" refX="10" refY="5" viewBox="0 0 14 10" orient="auto" markerUnits="userSpaceOnUse" stroke-dasharray="0,0"><path id="SvgjsPath1327" d="M0,0 L14,5 L0,10 L0,0" fill="#323232" stroke="#323232" stroke-width="1"></path></marker><marker id="SvgjsMarker1346" markerWidth="14" markerHeight="10" refX="10" refY="5" viewBox="0 0 14 10" orient="auto" markerUnits="userSpaceOnUse" stroke-dasharray="0,0"><path id="SvgjsPath1347" d="M0,0 L14,5 L0,10 L0,0" fill="#323232" stroke="#323232" stroke-width="1"></path></marker><marker id="SvgjsMarker1350" markerWidth="14" markerHeight="10" refX="10" refY="5" viewBox="0 0 14 10" orient="auto" markerUnits="userSpaceOnUse" stroke-dasharray="0,0"><path id="SvgjsPath1351" d="M0,0 L14,5 L0,10 L0,0" fill="#323232" stroke="#323232" stroke-width="1"></path></marker><marker id="SvgjsMarker1354" markerWidth="14" markerHeight="10" refX="10" refY="5" viewBox="0 0 14 10" orient="auto" markerUnits="userSpaceOnUse" stroke-dasharray="0,0"><path id="SvgjsPath1355" d="M0,0 L14,5 L0,10 L0,0" fill="#323232" stroke="#323232" stroke-width="1"></path></marker><marker id="SvgjsMarker1358" markerWidth="14" markerHeight="10" refX="10" refY="5" viewBox="0 0 14 10" orient="auto" markerUnits="userSpaceOnUse" stroke-dasharray="0,0"><path id="SvgjsPath1359" d="M0,0 L14,5 L0,10 L0,0" fill="#323232" stroke="#323232" stroke-width="1"></path></marker></defs><g id="SvgjsG1197" transform="translate(387,25)"><path id="SvgjsPath1198" d="M 0 32.5C 0 -10.833333333333334 121 -10.833333333333334 121 32.5C 121 75.83333333333333 0 75.83333333333333 0 32.5Z" stroke="rgba(50,50,50,1)" stroke-width="2" fill-opacity="1" fill="#ffffff"></path><g id="SvgjsG1199"><text id="SvgjsText1200" font-family="微软雅黑" text-anchor="middle" font-size="13px" width="101px" fill="#323232" font-weight="400" align="middle" lineHeight="125%" anchor="middle" family="微软雅黑" size="13px" weight="400" font-style="" opacity="1" y="22.875" transform="rotate(0)"><tspan id="SvgjsTspan1201" dy="16" x="60.5"><tspan id="SvgjsTspan1202" style="text-decoration:;">开始</tspan></tspan></text></g></g><g id="SvgjsG1203" transform="translate(387.5,873)"><path id="SvgjsPath1204" d="M 0 32.5C 0 -10.833333333333334 121 -10.833333333333334 121 32.5C 121 75.83333333333333 0 75.83333333333333 0 32.5Z" stroke="rgba(50,50,50,1)" stroke-width="2" fill-opacity="1" fill="#ffffff"></path><g id="SvgjsG1205"><text id="SvgjsText1206" font-family="微软雅黑" text-anchor="middle" font-size="13px" width="101px" fill="#323232" font-weight="400" align="middle" lineHeight="125%" anchor="middle" family="微软雅黑" size="13px" weight="400" font-style="" opacity="1" y="22.875" transform="rotate(0)"><tspan id="SvgjsTspan1207" dy="16" x="60.5"><tspan id="SvgjsTspan1208" style="text-decoration:;">结束</tspan></tspan></text></g></g><g id="SvgjsG1209"><path id="SvgjsPath1210" d="M447.5 91L447.5 107L447.5 107L447.5 120.4" stroke="#323232" stroke-width="2" fill="none" marker-end="url(#SvgjsMarker1211)"></path></g><g id="SvgjsG1213" transform="translate(304.75,124)"><path id="SvgjsPath1214" d="M 0 0L 285.5 0L 285.5 35L 0 35Z" stroke="rgba(50,50,50,1)" stroke-width="2" fill-opacity="1" fill="#ffffff"></path><g id="SvgjsG1215"><text id="SvgjsText1216" font-family="微软雅黑" text-anchor="middle" font-size="13px" width="266px" fill="#323232" font-weight="400" align="middle" lineHeight="125%" anchor="middle" family="微软雅黑" size="13px" weight="400" font-style="" opacity="1" y="7.875" transform="rotate(0)"><tspan id="SvgjsTspan1217" dy="16" x="143"><tspan id="SvgjsTspan1218" style="text-decoration:;">获取参数headphones，shells</tspan><tspan id="SvgjsTspan1219" style="text-decoration:;font-size: inherit;">，protectors</tspan></tspan></text></g></g><g id="SvgjsG1220" transform="translate(363.75,193)"><path id="SvgjsPath1221" d="M 0 0L 167.5 0L 167.5 37L 0 37Z" stroke="rgba(50,50,50,1)" stroke-width="2" fill-opacity="1" fill="#ffffff"></path><g id="SvgjsG1222"><text id="SvgjsText1223" font-family="微软雅黑" text-anchor="middle" font-size="13px" width="148px" fill="#323232" font-weight="400" align="middle" lineHeight="125%" anchor="middle" family="微软雅黑" size="13px" weight="400" font-style="" opacity="1" y="8.875" transform="rotate(0)"><tspan id="SvgjsTspan1224" dy="16" x="84"><tspan id="SvgjsTspan1225" style="text-decoration:;">定义变量salary，total</tspan></tspan></text></g></g><g id="SvgjsG1226"><path id="SvgjsPath1227" d="M447.5 160L447.5 176L447.5 176L447.5 189.4" stroke="#323232" stroke-width="2" fill="none" marker-end="url(#SvgjsMarker1228)"></path></g><g id="SvgjsG1230"><path id="SvgjsPath1231" d="M447.5 231L447.5 247L447.5 247L447.5 260.4" stroke="#323232" stroke-width="2" fill="none" marker-end="url(#SvgjsMarker1232)"></path></g><g id="SvgjsG1234" transform="translate(273.25,264)"><path id="SvgjsPath1235" d="M 0 36L 174.25 0L 348.5 36L 174.25 72Z" stroke="rgba(50,50,50,1)" stroke-width="2" fill-opacity="1" fill="#ffffff"></path><g id="SvgjsG1236"><text id="SvgjsText1237" font-family="微软雅黑" text-anchor="middle" font-size="13px" width="329px" fill="#323232" font-weight="400" align="middle" lineHeight="125%" anchor="middle" family="微软雅黑" size="13px" weight="400" font-style="" opacity="1" y="26.735" transform="rotate(0)"><tspan id="SvgjsTspan1238" dy="16" x="174.5"><tspan id="SvgjsTspan1239" style="text-decoration:;">headphones&lt;=0 || shells &lt; 0 || protectors &lt; 0</tspan></tspan></text></g></g><g id="SvgjsG1240"><path id="SvgjsPath1241" d="M622.75 300L650.875 300L650.875 300L676.4 300" stroke="#323232" stroke-width="2" fill="none" marker-end="url(#SvgjsMarker1242)"></path><rect id="SvgjsRect1244" width="8" height="16" x="645.5749999999999" y="292" fill="#ffffff"></rect><text id="SvgjsText1245" font-family="微软雅黑" text-anchor="middle" font-size="13px" width="8px" fill="#323232" font-weight="400" align="top" lineHeight="16px" anchor="middle" family="微软雅黑" size="13px" weight="400" font-style="" opacity="1" y="290.375" transform="rotate(0)"><tspan id="SvgjsTspan1246" dy="16" x="649.5749999999999"><tspan id="SvgjsTspan1247" style="text-decoration:;">Y</tspan></tspan></text></g><g id="SvgjsG1248" transform="translate(680,282)"><path id="SvgjsPath1249" d="M 0 0L 101 0L 101 36L 0 36Z" stroke="rgba(50,50,50,1)" stroke-width="2" fill-opacity="1" fill="#ffffff"></path><g id="SvgjsG1250"><text id="SvgjsText1251" font-family="微软雅黑" text-anchor="middle" font-size="13px" width="81px" fill="#323232" font-weight="400" align="middle" lineHeight="125%" anchor="middle" family="微软雅黑" size="13px" weight="400" font-style="" opacity="1" y="8.375" transform="rotate(0)"><tspan id="SvgjsTspan1252" dy="16" x="50.5"><tspan id="SvgjsTspan1253" style="text-decoration:;">返回-1</tspan></tspan></text></g></g><g id="SvgjsG1254"><path id="SvgjsPath1255" d="M730.5 319L730.5 905.5L512.1 905.5" stroke="#323232" stroke-width="2" fill="none" marker-end="url(#SvgjsMarker1256)"></path></g><g id="SvgjsG1258"><path id="SvgjsPath1259" d="M447.5 337L447.5 363L447.5 363L447.5 386.4" stroke="#323232" stroke-width="2" fill="none" marker-end="url(#SvgjsMarker1260)"></path><rect id="SvgjsRect1262" width="11" height="16" x="441.5" y="353" fill="#ffffff"></rect><text id="SvgjsText1263" font-family="微软雅黑" text-anchor="middle" font-size="13px" width="11px" fill="#323232" font-weight="400" align="top" lineHeight="16px" anchor="middle" family="微软雅黑" size="13px" weight="400" font-style="" opacity="1" y="351.375" transform="rotate(0)"><tspan id="SvgjsTspan1264" dy="16" x="447"><tspan id="SvgjsTspan1265" style="text-decoration:;">N</tspan></tspan></text></g><g id="SvgjsG1266" transform="translate(265.25,390)"><path id="SvgjsPath1267" d="M 0 0L 364.5 0L 364.5 33L 0 33Z" stroke="rgba(50,50,50,1)" stroke-width="2" fill-opacity="1" fill="#ffffff"></path><g id="SvgjsG1268"><text id="SvgjsText1269" font-family="微软雅黑" text-anchor="middle" font-size="13px" width="345px" fill="#323232" font-weight="400" align="middle" lineHeight="125%" anchor="middle" family="微软雅黑" size="13px" weight="400" font-style="" opacity="1" y="6.875" transform="rotate(0)"><tspan id="SvgjsTspan1270" dy="16" x="182.5"><tspan id="SvgjsTspan1271" style="text-decoration:;">total = headphones * 80 + shells * 10 + protectors * 8</tspan></tspan></text></g></g><g id="SvgjsG1272"><path id="SvgjsPath1273" d="M447.5 424L447.5 440L447.5 440L447.5 453.4" stroke="#323232" stroke-width="2" fill="none" marker-end="url(#SvgjsMarker1274)"></path></g><g id="SvgjsG1276" transform="translate(387.5,457)"><path id="SvgjsPath1277" d="M 0 31L 60 0L 120 31L 60 62Z" stroke="rgba(50,50,50,1)" stroke-width="2" fill-opacity="1" fill="#ffffff"></path><g id="SvgjsG1278"><text id="SvgjsText1279" font-family="微软雅黑" text-anchor="middle" font-size="13px" width="100px" fill="#323232" font-weight="400" align="middle" lineHeight="125%" anchor="middle" family="微软雅黑" size="13px" weight="400" font-style="" opacity="1" y="21.685000000000002" transform="rotate(0)"><tspan id="SvgjsTspan1280" dy="16" x="60"><tspan id="SvgjsTspan1281" style="text-decoration:;">total &lt; 1000</tspan></tspan></text></g></g><g id="SvgjsG1282" transform="translate(387.5,573.5)"><path id="SvgjsPath1283" d="M 0 31L 60 0L 120 31L 60 62Z" stroke="rgba(50,50,50,1)" stroke-width="2" fill-opacity="1" fill="#ffffff"></path><g id="SvgjsG1284"><text id="SvgjsText1285" font-family="微软雅黑" text-anchor="middle" font-size="13px" width="100px" fill="#323232" font-weight="400" align="middle" lineHeight="125%" anchor="middle" family="微软雅黑" size="13px" weight="400" font-style="" opacity="1" y="21.685000000000002" transform="rotate(0)"><tspan id="SvgjsTspan1286" dy="16" x="60"><tspan id="SvgjsTspan1287" style="text-decoration:;">total &lt; 1800</tspan></tspan></text></g></g><g id="SvgjsG1288"><path id="SvgjsPath1289" d="M447.5 520L447.5 546.25L447.5 546.25L447.5 569.9" stroke="#323232" stroke-width="2" fill="none" marker-end="url(#SvgjsMarker1290)"></path><rect id="SvgjsRect1292" width="11" height="16" x="441.5" y="532" fill="#ffffff"></rect><text id="SvgjsText1293" font-family="微软雅黑" text-anchor="middle" font-size="13px" width="11px" fill="#323232" font-weight="400" align="top" lineHeight="16px" anchor="middle" family="微软雅黑" size="13px" weight="400" font-style="" opacity="1" y="530.375" transform="rotate(0)"><tspan id="SvgjsTspan1294" dy="16" x="447"><tspan id="SvgjsTspan1295" style="text-decoration:;">N</tspan></tspan></text></g><g id="SvgjsG1296"><path id="SvgjsPath1297" d="M447.5 636.5L447.5 663.125L447.5 663.125L447.5 687.15" stroke="#323232" stroke-width="2" fill="none" marker-end="url(#SvgjsMarker1298)"></path><rect id="SvgjsRect1300" width="11" height="16" x="441.25" y="650.98125" fill="#ffffff"></rect><text id="SvgjsText1301" font-family="微软雅黑" text-anchor="middle" font-size="13px" width="11px" fill="#323232" font-weight="400" align="top" lineHeight="16px" anchor="middle" family="微软雅黑" size="13px" weight="400" font-style="" opacity="1" y="649.35625" transform="rotate(0)"><tspan id="SvgjsTspan1302" dy="16" x="446.75"><tspan id="SvgjsTspan1303" style="text-decoration:;">N</tspan></tspan></text></g><g id="SvgjsG1304" transform="translate(266,690.75)"><path id="SvgjsPath1305" d="M 0 0L 363 0L 363 40L 0 40Z" stroke="rgba(50,50,50,1)" stroke-width="2" fill-opacity="1" fill="#ffffff"></path><g id="SvgjsG1306"><text id="SvgjsText1307" font-family="微软雅黑" text-anchor="middle" font-size="13px" width="343px" fill="#323232" font-weight="400" align="middle" lineHeight="125%" anchor="middle" family="微软雅黑" size="13px" weight="400" font-style="" opacity="1" y="10.375" transform="rotate(0)"><tspan id="SvgjsTspan1308" dy="16" x="181.5"><tspan id="SvgjsTspan1309" style="text-decoration:;">salary = 1000 * 0.1 + 800 * 0.15 + (total - 1800) * 0.2</tspan></tspan></text></g></g><g id="SvgjsG1310"><path id="SvgjsPath1311" d="M386.5 604.5L361.25 604.5L361.25 604.5L338.6 604.5" stroke="#323232" stroke-width="2" fill="none" marker-end="url(#SvgjsMarker1312)"></path><rect id="SvgjsRect1314" width="8" height="16" x="358.55" y="596.5" fill="#ffffff"></rect><text id="SvgjsText1315" font-family="微软雅黑" text-anchor="middle" font-size="13px" width="8px" fill="#323232" font-weight="400" align="top" lineHeight="16px" anchor="middle" family="微软雅黑" size="13px" weight="400" font-style="" opacity="1" y="594.875" transform="rotate(0)"><tspan id="SvgjsTspan1316" dy="16" x="362.55"><tspan id="SvgjsTspan1317" style="text-decoration:;">Y</tspan></tspan></text></g><g id="SvgjsG1318" transform="translate(55,584.25)"><path id="SvgjsPath1319" d="M 0 0L 280 0L 280 40.5L 0 40.5Z" stroke="rgba(50,50,50,1)" stroke-width="2" fill-opacity="1" fill="#ffffff"></path><g id="SvgjsG1320"><text id="SvgjsText1321" font-family="微软雅黑" text-anchor="middle" font-size="13px" width="260px" fill="#323232" font-weight="400" align="middle" lineHeight="125%" anchor="middle" family="微软雅黑" size="13px" weight="400" font-style="" opacity="1" y="10.625" transform="rotate(0)"><tspan id="SvgjsTspan1322" dy="16" x="140"><tspan id="SvgjsTspan1323" style="text-decoration:;">salary = 1000 * 0.1 + (total - 1000) * 0.15</tspan></tspan></text></g></g><g id="SvgjsG1324"><path id="SvgjsPath1325" d="M386.5 488L314.75 488L314.75 488L245.60000000000002 488" stroke="#323232" stroke-width="2" fill="none" marker-end="url(#SvgjsMarker1326)"></path><rect id="SvgjsRect1328" width="8" height="16" x="312.05" y="480" fill="#ffffff"></rect><text id="SvgjsText1329" font-family="微软雅黑" text-anchor="middle" font-size="13px" width="8px" fill="#323232" font-weight="400" align="top" lineHeight="16px" anchor="middle" family="微软雅黑" size="13px" weight="400" font-style="" opacity="1" y="478.375" transform="rotate(0)"><tspan id="SvgjsTspan1330" dy="16" x="316.05"><tspan id="SvgjsTspan1331" style="text-decoration:;">Y</tspan></tspan></text></g><g id="SvgjsG1332" transform="translate(55,468.5)"><path id="SvgjsPath1333" d="M 0 0L 187 0L 187 39L 0 39Z" stroke="rgba(50,50,50,1)" stroke-width="2" fill-opacity="1" fill="#ffffff"></path><g id="SvgjsG1334"><text id="SvgjsText1335" font-family="微软雅黑" text-anchor="middle" font-size="13px" width="167px" fill="#323232" font-weight="400" align="middle" lineHeight="125%" anchor="middle" family="微软雅黑" size="13px" weight="400" font-style="" opacity="1" y="9.875" transform="rotate(0)"><tspan id="SvgjsTspan1336" dy="16" x="93.5"><tspan id="SvgjsTspan1337" style="text-decoration:;">salary = total * 0.1</tspan></tspan></text></g></g><g id="SvgjsG1338" transform="translate(397.5,786)"><path id="SvgjsPath1339" d="M 0 0L 100 0L 100 37L 0 37Z" stroke="rgba(50,50,50,1)" stroke-width="2" fill-opacity="1" fill="#ffffff"></path><g id="SvgjsG1340"><text id="SvgjsText1341" font-family="微软雅黑" text-anchor="middle" font-size="13px" width="80px" fill="#323232" font-weight="400" align="middle" lineHeight="125%" anchor="middle" family="微软雅黑" size="13px" weight="400" font-style="" opacity="1" y="8.875" transform="rotate(0)"><tspan id="SvgjsTspan1342" dy="16" x="50"><tspan id="SvgjsTspan1343" style="text-decoration:;">返回salary</tspan></tspan></text></g></g><g id="SvgjsG1344"><path id="SvgjsPath1345" d="M447.5 824L447.5 848L448 848L448 869.4" stroke="#323232" stroke-width="2" fill="none" marker-end="url(#SvgjsMarker1346)"></path></g><g id="SvgjsG1348"><path id="SvgjsPath1349" d="M195 625.75L195 757.375L447.5 757.375L447.5 782.4" stroke="#323232" stroke-width="2" fill="none" marker-end="url(#SvgjsMarker1350)"></path></g><g id="SvgjsG1352"><path id="SvgjsPath1353" d="M54 488L25 488L25 804.5L393.9 804.5" stroke="#323232" stroke-width="2" fill="none" marker-end="url(#SvgjsMarker1354)"></path></g><g id="SvgjsG1356"><path id="SvgjsPath1357" d="M630 710.75L659 710.75L659 804.5L501.1 804.5" stroke="#323232" stroke-width="2" fill="none" marker-end="url(#SvgjsMarker1358)"></path></g><g id="SvgjsG1360" transform="translate(793,283)"><path id="SvgjsPath1361" d="M 0 0L 33 0L 33 34L 0 34Z" stroke="none" fill="none"></path><g id="SvgjsG1362"><text id="SvgjsText1363" font-family="微软雅黑" text-anchor="middle" font-size="13px" width="33px" fill="#323232" font-weight="400" align="middle" lineHeight="125%" anchor="middle" family="微软雅黑" size="13px" weight="400" font-style="" opacity="1" y="7.375" transform="rotate(0)"><tspan id="SvgjsTspan1364" dy="16" x="16.5"><tspan id="SvgjsTspan1365" style="text-decoration:;">a</tspan></tspan></text></g></g><g id="SvgjsG1366" transform="translate(132,430)"><path id="SvgjsPath1367" d="M 0 0L 33 0L 33 34L 0 34Z" stroke="none" fill="none"></path><g id="SvgjsG1368"><text id="SvgjsText1369" font-family="微软雅黑" text-anchor="middle" font-size="13px" width="33px" fill="#323232" font-weight="400" align="middle" lineHeight="125%" anchor="middle" family="微软雅黑" size="13px" weight="400" font-style="" opacity="1" y="7.375" transform="rotate(0)"><tspan id="SvgjsTspan1370" dy="16" x="16.5"><tspan id="SvgjsTspan1371" style="text-decoration:;">b</tspan></tspan></text></g></g><g id="SvgjsG1372" transform="translate(132,546.5)"><path id="SvgjsPath1373" d="M 0 0L 33 0L 33 34L 0 34Z" stroke="none" fill="none"></path><g id="SvgjsG1374"><text id="SvgjsText1375" font-family="微软雅黑" text-anchor="middle" font-size="13px" width="33px" fill="#323232" font-weight="400" align="middle" lineHeight="125%" anchor="middle" family="微软雅黑" size="13px" weight="400" font-style="" opacity="1" y="7.375" transform="rotate(0)"><tspan id="SvgjsTspan1376" dy="16" x="16.5"><tspan id="SvgjsTspan1377" style="text-decoration:;">c</tspan></tspan></text></g></g><g id="SvgjsG1378" transform="translate(549,654)"><path id="SvgjsPath1379" d="M 0 0L 33 0L 33 34L 0 34Z" stroke="none" fill="none"></path><g id="SvgjsG1380"><text id="SvgjsText1381" font-family="微软雅黑" text-anchor="middle" font-size="13px" width="33px" fill="#323232" font-weight="400" align="middle" lineHeight="125%" anchor="middle" family="微软雅黑" size="13px" weight="400" font-style="" opacity="1" y="7.375" transform="rotate(0)"><tspan id="SvgjsTspan1382" dy="16" x="16.5"><tspan id="SvgjsTspan1383" style="text-decoration:;">d</tspan></tspan></text></g></g><g id="SvgjsG1384" transform="translate(97,211)"><path id="SvgjsPath1385" d="M 0 0L 120 0L 120 40L 0 40Z" stroke="none" fill="none"></path><g id="SvgjsG1386"><text id="SvgjsText1387" font-family="微软雅黑" text-anchor="middle" font-size="13px" width="120px" fill="#323232" font-weight="700" align="middle" lineHeight="125%" anchor="middle" family="微软雅黑" size="13px" weight="700" font-style="" opacity="1" y="10.375" transform="rotate(0)"><tspan id="SvgjsTspan1388" dy="16" x="60"><tspan id="SvgjsTspan1389" style="text-decoration:;">author: Liquanzhi</tspan></tspan></text></g></g></svg>